<?xml version="1.0" encoding="utf-8"?>
<!-- Generator: Adobe Illustrator 16.0.0, SVG Export Plug-In . SVG Version: 6.00 Build 0)  -->
<!DOCTYPE svg PUBLIC "-//W3C//DTD SVG 1.1//EN" "http://www.w3.org/Graphics/SVG/1.1/DTD/svg11.dtd">
<svg version="1.1" id="Layer_1" xmlns="http://www.w3.org/2000/svg" xmlns:xlink="http://www.w3.org/1999/xlink" x="0px" y="0px"
	 width="772.667px" height="150.667px" viewBox="0 0 772.667 150.667" enable-background="new 0 0 772.667 150.667"
	 xml:space="preserve">
<path fill-rule="evenodd" clip-rule="evenodd" fill="#77B9C6" d="M68.083,49.452h20.594c3.135,0,5.701,2.513,5.701,5.583V74.69
	c0,3.069-2.565,5.583-5.701,5.583H68.083c-3.138,0-5.704-2.513-5.704-5.583V55.035C62.379,51.964,64.944,49.452,68.083,49.452"/>
<path fill-rule="evenodd" clip-rule="evenodd" fill="#657B98" d="M40.295,59.911h16.703c2.611,0,4.744,2.091,4.744,4.644v17.482
	c0,2.553-2.132,4.647-4.744,4.647H40.295c-2.61,0-4.748-2.094-4.748-4.647V64.555C35.548,62.002,37.686,59.911,40.295,59.911"/>
<path fill-rule="evenodd" clip-rule="evenodd" fill="#86C441" d="M66.501,80.975h14.264c2.228,0,4.051,1.784,4.051,3.966v14.923
	c0,2.184-1.823,3.972-4.051,3.972H66.501c-2.231,0-4.054-1.788-4.054-3.972V84.941C62.447,82.759,64.27,80.975,66.501,80.975"/>
<path fill-rule="evenodd" clip-rule="evenodd" fill="#532669" d="M34.953,87.267h21.068c3.292,0,5.986,2.638,5.986,5.858v22.049
	c0,3.223-2.694,5.858-5.986,5.858H34.953c-3.292,0-5.986-2.636-5.986-5.858V93.125C28.967,89.905,31.661,87.267,34.953,87.267"/>
<path fill-rule="evenodd" clip-rule="evenodd" fill="#892572" d="M13.658,104.724h11.429c1.782,0,3.248,1.431,3.248,3.18v11.96
	c0,1.747-1.466,3.18-3.248,3.18H13.658c-1.785,0-3.248-1.433-3.248-3.18v-11.96C10.41,106.154,11.873,104.724,13.658,104.724"/>
<path fill-rule="evenodd" clip-rule="evenodd" fill="#9C76B4" d="M49.964,124.977h7.986c1.251,0,2.27,1,2.27,2.22v8.357
	c0,1.222-1.019,2.224-2.27,2.224h-7.986c-1.247,0-2.267-1.002-2.267-2.224v-8.357C47.697,125.977,48.717,124.977,49.964,124.977"/>
<path fill-rule="evenodd" clip-rule="evenodd" fill="#FFFFFF" d="M68.261,89.814c-14.312,41.458-44.217,20.053-47.357,15.583
	c20.779,9.165,29.605-0.594,29.605-0.594c-15.119-4.315-12.581-17.147-12.581-17.147c-0.806,9.43,21.484,10.398,22.125-0.321
	c1.118-18.59-32.95-15.406-17.661-15.863c1.499-0.047,3.646-0.187,6.354,0.099c17.348,1.833,15.017,8.719,18.993,8.703
	c4.965,0.329,18.138-19.846,17.9-18.625C85.4,62.862,81.061,85.068,68.261,89.814"/>
<path fill-rule="evenodd" clip-rule="evenodd" fill="#FFFFFF" d="M69.388,68.621c1.858,0,3.364,1.593,3.364,3.563
	c0,1.964-1.506,3.559-3.364,3.559c-1.857,0-3.367-1.595-3.367-3.559C66.021,70.214,67.531,68.621,69.388,68.621"/>
<path fill="#421E58" d="M109.481,12.737v15.931c0,1.76,0.242,3.117,0.719,4.073h-4.164c0.48-0.957,0.717-2.313,0.717-4.073V17.625
	h-3.091L109.481,12.737z"/>
<path fill="#421E58" d="M121.395,12.737v15.931c0,1.76,0.242,3.117,0.719,4.073h-4.164c0.48-0.957,0.717-2.313,0.717-4.073V17.625
	h-3.091L121.395,12.737z"/>
<path fill="#421E58" d="M124.595,13.85l2.137-2.634v1.787h1.757v0.847h-1.757v4.218c0,0.247,0.068,0.44,0.201,0.578
	c0.13,0.139,0.317,0.207,0.549,0.207c0.484,0,0.862-0.099,1.145-0.293l-0.358,1.307c-0.445,0.106-0.838,0.158-1.178,0.158
	c-0.536,0-0.951-0.158-1.25-0.468c-0.297-0.313-0.446-0.752-0.446-1.321V13.85H124.595z"/>
<path fill="#421E58" d="M129.243,19.866c0.238-0.479,0.357-1.155,0.357-2.038v-5.934c0-0.3-0.033-0.602-0.101-0.911
	c-0.068-0.309-0.153-0.567-0.256-0.775l2.052-0.346c-0.236,0.487-0.355,1.164-0.355,2.032v2.188l0.849-1.08
	c0.361-0.102,0.702-0.153,1.029-0.153c0.634,0,1.125,0.199,1.469,0.598c0.343,0.397,0.521,0.961,0.521,1.691v2.689
	c0,0.882,0.119,1.559,0.357,2.038h-2.057c0.241-0.492,0.361-1.171,0.361-2.038v-2.689c0-0.335-0.098-0.604-0.293-0.807
	c-0.194-0.2-0.463-0.299-0.805-0.299c-0.338,0-0.663,0.083-0.968,0.254c-0.309,0.167-0.463,0.344-0.463,0.517v3.024
	c0,0.867,0.119,1.545,0.355,2.038H129.243z"/>
<path fill="#421E58" d="M150.343,15.401h-1.131v5.836h6.825l-1.857,3.132c-0.481-0.212-1.212-0.39-2.194-0.543
	c-0.985-0.148-1.909-0.226-2.773-0.226v6.775h2.265c2.444,0,4.475-0.392,6.083-1.179l-1.056,3.545h-10.938
	c0.228-0.512,0.413-1.272,0.552-2.275c0.143-1.009,0.214-2.035,0.214-3.083v-8.992c0-0.994-0.078-2.009-0.221-3.029
	c-0.146-1.021-0.328-1.797-0.545-2.326h11.994l-1.86,3.146c-0.504-0.228-1.258-0.416-2.266-0.563
	C152.431,15.475,151.398,15.401,150.343,15.401"/>
<path fill="#421E58" d="M164.99,20.772c-1.082,0-1.913,0.44-2.48,1.325c-0.576,0.885-0.865,2.142-0.865,3.765
	c0,1.618,0.396,2.862,1.182,3.738c0.657,0.728,1.445,1.09,2.374,1.09c0.59,0,1.196-0.14,1.819-0.414
	c0.625-0.278,0.938-0.552,0.938-0.832v-7.416C167.175,21.192,166.19,20.772,164.99,20.772 M171.353,12.737
	c-0.481,0.936-0.716,2.292-0.716,4.06v11.884c0,1.766,0.235,3.12,0.716,4.06h-3.394v-2.026l-1.725,2.123
	c-0.568,0.148-1.224,0.217-1.961,0.217c-1.497,0-2.771-0.628-3.83-1.879c-1.05-1.255-1.574-2.778-1.574-4.573
	c0-2.188,0.746-4.062,2.238-5.629c0.756-0.79,1.514-1.364,2.273-1.726c0.766-0.36,1.61-0.541,2.539-0.541
	c0.705,0,1.384,0.103,2.041,0.304v-2.213c0-0.597-0.068-1.202-0.201-1.825c-0.133-0.616-0.303-1.132-0.518-1.543L171.353,12.737z"/>
<path fill="#421E58" d="M173.428,32.741c0.481-0.958,0.715-2.314,0.715-4.072V23.07c0-1.749-0.234-3.104-0.715-4.059h4.109
	c-0.476,0.955-0.715,2.31-0.715,4.059v5.599c0,1.758,0.239,3.114,0.715,4.072H173.428z M173.554,14.961
	c0-0.521,0.188-0.97,0.572-1.352c0.383-0.379,0.835-0.572,1.363-0.572c0.521,0,0.971,0.192,1.355,0.572
	c0.379,0.382,0.567,0.832,0.567,1.352c0,0.525-0.188,0.982-0.567,1.363c-0.384,0.383-0.834,0.578-1.355,0.578
	c-0.528,0-0.98-0.194-1.363-0.578C173.742,15.943,173.554,15.486,173.554,14.961"/>
<path fill="#421E58" d="M178.919,20.707l4.273-5.266v3.57h3.513v1.696h-3.513v8.439c0,0.492,0.133,0.879,0.401,1.157
	c0.262,0.275,0.632,0.413,1.101,0.413c0.963,0,1.723-0.2,2.286-0.589l-0.718,2.615c-0.89,0.209-1.673,0.313-2.352,0.313
	c-1.076,0-1.907-0.313-2.501-0.936c-0.593-0.629-0.896-1.504-0.896-2.634v-8.778H178.919z"/>
<path fill="#421E58" d="M188.211,32.741c0.48-0.958,0.719-2.314,0.719-4.072V23.07c0-1.749-0.239-3.104-0.719-4.059h4.112
	c-0.479,0.955-0.719,2.31-0.719,4.059v5.599c0,1.758,0.24,3.114,0.719,4.072H188.211z M188.341,14.961
	c0-0.521,0.188-0.97,0.568-1.352c0.382-0.379,0.838-0.572,1.367-0.572c0.517,0,0.968,0.192,1.352,0.572
	c0.383,0.382,0.57,0.832,0.57,1.352c0,0.525-0.188,0.982-0.57,1.363c-0.384,0.383-0.835,0.578-1.352,0.578
	c-0.529,0-0.985-0.194-1.367-0.578C188.529,15.943,188.341,15.486,188.341,14.961"/>
<path fill="#421E58" d="M204.696,30.792c-0.757,0.804-1.509,1.38-2.266,1.732c-0.753,0.354-1.615,0.53-2.577,0.53
	c-1.615,0-2.97-0.621-4.045-1.854c-1.083-1.238-1.625-2.774-1.625-4.609c0-1.127,0.18-2.148,0.529-3.043
	c0.351-0.898,0.913-1.755,1.683-2.574c0.753-0.808,1.51-1.383,2.266-1.734c0.752-0.355,1.612-0.532,2.572-0.532
	c1.622,0,2.972,0.616,4.051,1.848c1.08,1.23,1.621,2.766,1.621,4.587c0,1.143-0.176,2.166-0.534,3.07
	C206.015,29.118,205.458,29.978,204.696,30.792 M200.081,20.771c-0.947,0-1.701,0.467-2.27,1.396
	c-0.568,0.93-0.851,2.162-0.851,3.694c0,1.572,0.368,2.815,1.087,3.742c0.726,0.93,1.713,1.392,2.964,1.392
	c0.948,0,1.701-0.47,2.27-1.408c0.566-0.938,0.849-2.178,0.849-3.726c0-1.558-0.362-2.792-1.086-3.712
	C202.317,21.229,201.332,20.771,200.081,20.771"/>
<path fill="#421E58" d="M208.743,32.741c0.481-0.958,0.715-2.314,0.715-4.073v-5.585c0-1.758-0.234-3.117-0.715-4.071h3.394v2.163
	l1.699-2.163c0.72-0.202,1.409-0.305,2.062-0.305c1.262,0,2.243,0.398,2.935,1.198c0.688,0.792,1.039,1.923,1.039,3.381v5.382
	c0,1.759,0.242,3.115,0.715,4.073h-4.112c0.478-0.983,0.718-2.34,0.718-4.073v-5.382c0-0.67-0.191-1.206-0.585-1.609
	c-0.389-0.404-0.925-0.604-1.603-0.604c-0.681,0-1.326,0.171-1.939,0.509c-0.62,0.339-0.929,0.685-0.929,1.039v6.047
	c0,1.733,0.241,3.09,0.718,4.073H208.743z"/>
<path fill="#421E58" d="M110.8,53.095h-1.847v9.561h11.185l-3.046,5.134c-0.785-0.344-1.984-0.638-3.595-0.884
	c-1.618-0.246-3.132-0.373-4.543-0.373v11.109h3.705c4.01,0,7.34-0.648,9.977-1.936l-1.73,5.812h-17.931
	c0.371-0.84,0.671-2.084,0.906-3.73c0.231-1.653,0.351-3.335,0.351-5.051V57.997c0-1.631-0.126-3.291-0.367-4.966
	c-0.236-1.676-0.533-2.949-0.89-3.814h19.661l-3.053,5.159c-0.822-0.374-2.062-0.683-3.705-0.923
	C114.227,53.213,112.531,53.095,110.8,53.095"/>
<path fill="#421E58" d="M139.99,62.804l-3.982,7.148l4.35,7.773c1.006,1.831,2.011,3.089,3.01,3.794h-6.593
	c0-0.826-0.308-1.901-0.928-3.218l-2.228-4.679l-2.248,4.679c-0.617,1.317-0.924,2.392-0.924,3.218h-6.593
	c0.985-0.69,1.991-1.95,3.005-3.794l4.352-7.773l-3.979-7.148c-1-1.844-2-3.113-2.992-3.794h6.577c0,0.726,0.313,1.803,0.929,3.215
	l1.874,3.954l1.858-3.954c0.617-1.413,0.925-2.489,0.925-3.215h6.58C141.991,59.691,140.991,60.96,139.99,62.804"/>
<path fill="#421E58" d="M155.223,82.031c-3.053,0-5.502-0.955-7.36-2.871c-1.857-1.921-2.777-4.487-2.777-7.705
	c0-4.039,1.202-7.238,3.622-9.601c1.253-1.239,2.399-2.105,3.432-2.597c1.036-0.492,2.211-0.747,3.516-0.747
	c2.31,0,4.106,0.843,5.398,2.526c1.297,1.688,1.934,4.033,1.934,7.044c0,1.152-0.003,1.968-0.033,2.445h-13.32
	c0.116,2.493,0.742,4.392,1.878,5.707c1.141,1.307,2.739,1.965,4.8,1.965c2.161,0,4.031-0.635,5.629-1.896l-1.443,5.129
	C158.423,81.834,156.664,82.031,155.223,82.031 M149.721,67.75h8.631c0-2.034-0.283-3.519-0.839-4.454
	c-0.565-0.936-1.464-1.401-2.702-1.401C151.88,61.895,150.184,63.845,149.721,67.75"/>
<path fill="#421E58" d="M180.72,81.434c-1.442,0.401-3.231,0.598-5.356,0.598c-2.821,0-5.149-1-6.992-3.012
	c-1.833-2.005-2.757-4.518-2.757-7.542c0-1.949,0.246-3.618,0.736-4.996c0.501-1.381,1.322-2.708,2.479-3.989
	c1.237-1.399,2.48-2.412,3.741-3.04c1.25-0.626,2.666-0.936,4.233-0.936c1.938,0,3.499,0.176,4.681,0.536l-1.241,4.446
	c-0.532-0.494-1.202-0.878-1.993-1.168c-0.808-0.29-1.615-0.438-2.437-0.438c-1.815,0-3.209,0.733-4.186,2.196
	c-0.971,1.465-1.466,3.519-1.466,6.173c0,2.529,0.614,4.485,1.833,5.866c1.208,1.378,2.938,2.068,5.177,2.068
	c1.913,0,3.686-0.619,5.318-1.854L180.72,81.434z"/>
<path fill="#421E58" d="M204.548,59.01c-0.79,1.563-1.176,3.795-1.176,6.678v9.174c0,2.898,0.386,5.115,1.176,6.658h-5.567v-3.525
	l-2.782,3.525c-1.128,0.343-2.254,0.512-3.379,0.512c-2.075,0-3.68-0.654-4.805-1.958c-1.125-1.306-1.689-3.157-1.689-5.56v-8.825
	c0-2.883-0.392-5.115-1.175-6.678h6.743c-0.79,1.563-1.175,3.795-1.175,6.678v8.825c0,1.109,0.317,1.994,0.954,2.657
	c0.644,0.662,1.514,0.984,2.634,0.984c1.11,0,2.167-0.273,3.173-0.832c0.998-0.553,1.502-1.124,1.502-1.7v-9.934
	c0-2.883-0.392-5.115-1.176-6.678H204.548z"/>
<path fill="#421E58" d="M206.814,61.791l7.006-8.634v5.854h5.755v2.78h-5.755v13.831c0,0.809,0.218,1.442,0.652,1.899
	c0.429,0.451,1.038,0.677,1.803,0.677c1.586,0,2.83-0.325,3.748-0.964l-1.172,4.285c-1.458,0.343-2.744,0.514-3.854,0.514
	c-1.761,0-3.125-0.514-4.102-1.534c-0.971-1.028-1.465-2.463-1.465-4.32V61.791H206.814z"/>
<path fill="#421E58" d="M222.043,81.52c0.79-1.57,1.175-3.794,1.175-6.679v-9.173c0-2.87-0.386-5.093-1.175-6.658h6.739
	c-0.78,1.565-1.172,3.788-1.172,6.658v9.173c0,2.885,0.393,5.109,1.172,6.679H222.043z M222.254,52.369
	c0-0.851,0.311-1.59,0.935-2.215c0.627-0.619,1.375-0.936,2.242-0.936c0.851,0,1.587,0.317,2.215,0.936
	c0.623,0.625,0.936,1.364,0.936,2.215c0,0.866-0.313,1.613-0.936,2.238c-0.628,0.625-1.364,0.944-2.215,0.944
	c-0.866,0-1.615-0.319-2.242-0.944C222.565,53.982,222.254,53.235,222.254,52.369"/>
<path fill="#421E58" d="M240.663,75.996l3.5-13.075c0.439-1.559,0.411-2.87-0.083-3.911h6.368c-0.579,0.727-1.157,2.007-1.731,3.836
	l-4.306,14.528c-0.238,0.78-0.524,2.167-0.845,4.146h-5.82c-0.328-1.979-0.611-3.366-0.842-4.146l-4.307-14.528
	c-0.578-1.829-1.152-3.109-1.731-3.836h6.366c-0.489,1.041-0.52,2.352-0.084,3.911L240.663,75.996z"/>
<path fill="#421E58" d="M262.28,82.031c-3.053,0-5.502-0.955-7.357-2.871c-1.856-1.921-2.78-4.487-2.78-7.705
	c0-4.039,1.202-7.238,3.622-9.601c1.253-1.239,2.399-2.105,3.435-2.597c1.033-0.492,2.208-0.747,3.513-0.747
	c2.31,0,4.103,0.843,5.398,2.526c1.296,1.688,1.936,4.033,1.936,7.044c0,1.152-0.008,1.968-0.035,2.445h-13.316
	c0.111,2.493,0.738,4.392,1.877,5.707c1.137,1.307,2.735,1.965,4.796,1.965c2.161,0,4.031-0.635,5.629-1.896l-1.443,5.129
	C265.481,81.834,263.721,82.031,262.28,82.031 M256.778,67.75h8.631c0-2.034-0.282-3.519-0.842-4.454
	c-0.563-0.936-1.461-1.401-2.702-1.401C258.938,61.895,257.241,63.845,256.778,67.75"/>
<path fill="#421E58" d="M306.598,71.724h-10.716l-0.516,1.261c-1.153,2.996-1.731,5.836-1.731,8.534h-7.935
	c1.401-1.415,2.897-3.935,4.49-7.543l11.051-25.25l11.064,25.25c1.57,3.595,3.061,6.113,4.477,7.543h-7.935
	c0-2.722-0.577-5.565-1.731-8.534L306.598,71.724z M301.242,58.307l-3.792,9.549h7.585L301.242,58.307z"/>
<path fill="#421E58" d="M328.075,76.113c0-1.056-0.712-2.039-2.124-2.946l-3.792-2.493c-1.912-1.264-2.863-2.938-2.863-5.032
	c0-1.945,0.651-3.587,1.974-4.901c1.488-1.484,3.244-2.231,5.277-2.231c1.428,0,2.883,0.184,4.372,0.544l-1.073,4.486
	c-1.11-0.879-2.437-1.315-3.981-1.315c-0.838,0-1.498,0.169-1.979,0.514c-0.478,0.346-0.724,0.801-0.724,1.38
	c0,1.032,0.712,2.018,2.127,2.967l3.458,2.271c1.148,0.757,1.979,1.577,2.505,2.465c0.535,0.886,0.796,1.901,0.796,3.038
	c0,1.835-0.677,3.469-2.04,4.884c-1.456,1.53-3.228,2.288-5.32,2.288c-1.646,0-3.419-0.2-5.318-0.599l0.77-4.555
	c1.249,0.967,2.969,1.446,5.15,1.446c0.811,0,1.474-0.211,1.994-0.629C327.814,77.274,328.075,76.749,328.075,76.113"/>
<path fill="#421E58" d="M342.932,76.113c0-1.056-0.708-2.039-2.123-2.946l-3.792-2.493c-1.915-1.264-2.864-2.938-2.864-5.032
	c0-1.945,0.655-3.587,1.974-4.901c1.488-1.484,3.245-2.231,5.278-2.231c1.428,0,2.883,0.184,4.368,0.544l-1.069,4.486
	c-1.111-0.879-2.438-1.315-3.981-1.315c-0.838,0-1.498,0.169-1.976,0.514c-0.478,0.346-0.724,0.801-0.724,1.38
	c0,1.032,0.709,2.018,2.12,2.967l3.462,2.271c1.147,0.757,1.979,1.577,2.504,2.465c0.536,0.886,0.796,1.901,0.796,3.038
	c0,1.835-0.677,3.469-2.04,4.884c-1.455,1.53-3.231,2.288-5.319,2.288c-1.646,0-3.421-0.2-5.319-0.599l0.77-4.555
	c1.251,0.967,2.964,1.446,5.146,1.446c0.819,0,1.479-0.211,2.001-0.629C342.673,77.274,342.932,76.749,342.932,76.113"/>
<path fill="#421E58" d="M349.444,81.52c0.787-1.57,1.173-3.794,1.173-6.679v-9.173c0-2.87-0.386-5.093-1.173-6.658h6.736
	c-0.779,1.565-1.174,3.788-1.174,6.658v9.173c0,2.885,0.396,5.109,1.174,6.679H349.444z M349.652,52.369
	c0-0.851,0.31-1.59,0.935-2.215c0.626-0.619,1.375-0.936,2.238-0.936c0.854,0,1.592,0.317,2.218,0.936
	c0.624,0.625,0.936,1.364,0.936,2.215c0,0.866-0.313,1.613-0.936,2.238c-0.626,0.625-1.364,0.944-2.218,0.944
	c-0.863,0-1.611-0.319-2.238-0.944C349.961,53.982,349.652,53.235,349.652,52.369"/>
<path fill="#421E58" d="M367.973,76.113c0-1.056-0.712-2.039-2.124-2.946l-3.795-2.493c-1.912-1.264-2.864-2.938-2.864-5.032
	c0-1.945,0.655-3.587,1.978-4.901c1.484-1.484,3.244-2.231,5.277-2.231c1.429,0,2.883,0.184,4.369,0.544l-1.07,4.486
	c-1.114-0.879-2.44-1.315-3.981-1.315c-0.838,0-1.498,0.169-1.979,0.514c-0.48,0.346-0.727,0.801-0.727,1.38
	c0,1.032,0.715,2.018,2.127,2.967l3.461,2.271c1.147,0.757,1.979,1.577,2.505,2.465c0.535,0.886,0.797,1.901,0.797,3.038
	c0,1.835-0.677,3.469-2.041,4.884c-1.458,1.53-3.228,2.288-5.32,2.288c-1.646,0-3.42-0.2-5.319-0.599l0.767-4.555
	c1.251,0.967,2.971,1.446,5.149,1.446c0.815,0,1.478-0.211,2-0.629C367.712,77.274,367.973,76.749,367.973,76.113"/>
<path fill="#421E58" d="M373.305,61.791l7.008-8.634v5.854h5.755v2.78h-5.755v13.831c0,0.809,0.218,1.442,0.652,1.899
	c0.43,0.451,1.036,0.677,1.803,0.677c1.586,0,2.827-0.325,3.748-0.964l-1.171,4.285c-1.459,0.343-2.745,0.514-3.855,0.514
	c-1.762,0-3.125-0.514-4.103-1.534c-0.974-1.028-1.464-2.463-1.464-4.32V61.791H373.305z"/>
<path fill="#421E58" d="M395.876,58.518c2.433,0,4.319,0.653,5.651,1.977c1.325,1.317,1.994,3.172,1.994,5.566v8.779
	c0,2.885,0.396,5.109,1.176,6.679h-5.563v-2.29l-2.66,2.534c-0.894,0.183-1.871,0.268-2.949,0.268c-1.429,0-2.618-0.512-3.56-1.533
	c-0.948-1.028-1.429-2.353-1.429-3.971c0-1.293,0.211-2.339,0.621-3.143c0.416-0.802,1.146-1.619,2.208-2.439
	c1.27-0.98,2.651-1.853,4.128-2.628c1.481-0.777,2.689-1.278,3.641-1.498v-1.132c0-1.208-0.377-2.147-1.114-2.8
	c-0.747-0.663-1.79-0.993-3.15-0.993c-2.063,0-3.933,0.534-5.606,1.606l1.377-4.405C392.236,58.71,393.983,58.518,395.876,58.518
	 M396.559,70.696c-1.371,0-2.323,0.283-2.842,0.854c-0.53,0.578-0.79,1.666-0.79,3.291c0,1.388,0.198,2.399,0.591,3.027
	c0.386,0.634,1.026,0.949,1.906,0.949c1.166,0,2.079-0.098,2.731-0.308c0.653-0.206,0.978-0.495,0.978-0.866v-6.946H396.559z"/>
<path fill="#421E58" d="M408.075,81.519c0.786-1.568,1.176-3.794,1.176-6.679v-9.152c0-2.883-0.39-5.113-1.176-6.678h5.567v3.547
	l2.783-3.547c1.182-0.329,2.309-0.499,3.377-0.499c2.075,0,3.68,0.655,4.813,1.964c1.133,1.301,1.701,3.151,1.701,5.544v8.821
	c0,2.885,0.396,5.111,1.176,6.679h-6.739c0.779-1.611,1.173-3.834,1.173-6.679v-8.821c0-1.098-0.315-1.977-0.956-2.639
	c-0.64-0.661-1.52-0.991-2.634-0.991c-1.107,0-2.172,0.282-3.179,0.838c-1.01,0.553-1.517,1.124-1.517,1.699v9.914
	c0,2.845,0.393,5.068,1.172,6.679H408.075z"/>
<path fill="#421E58" d="M429.575,61.791l7.009-8.634v5.854h5.754v2.78h-5.754v13.831c0,0.809,0.217,1.442,0.656,1.899
	c0.426,0.451,1.033,0.677,1.799,0.677c1.582,0,2.826-0.325,3.748-0.964l-1.173,4.285c-1.458,0.343-2.748,0.514-3.855,0.514
	c-1.76,0-3.125-0.514-4.102-1.534c-0.971-1.028-1.465-2.463-1.465-4.32V61.791H429.575z"/>
<path fill="#421E58" d="M453.156,76.113c0-1.056-0.708-2.039-2.124-2.946l-3.79-2.493c-1.913-1.264-2.864-2.938-2.864-5.032
	c0-1.945,0.656-3.587,1.975-4.901c1.484-1.484,3.244-2.231,5.277-2.231c1.429,0,2.887,0.184,4.371,0.544l-1.068,4.486
	c-1.114-0.879-2.442-1.315-3.985-1.315c-0.838,0-1.497,0.169-1.975,0.514c-0.478,0.346-0.728,0.801-0.728,1.38
	c0,1.032,0.711,2.018,2.127,2.967l3.462,2.271c1.143,0.757,1.975,1.577,2.501,2.465c0.536,0.886,0.795,1.901,0.795,3.038
	c0,1.835-0.672,3.469-2.04,4.884c-1.455,1.53-3.228,2.288-5.316,2.288c-1.65,0-3.423-0.2-5.32-0.599l0.767-4.555
	c1.25,0.967,2.968,1.446,5.15,1.446c0.816,0,1.475-0.211,1.998-0.629C452.899,77.274,453.156,76.749,453.156,76.113"/>
<path fill="#81C342" d="M110.202,102.109c-0.371,0.838-0.665,2.083-0.906,3.73c-0.235,1.653-0.344,3.334-0.344,5.049v19.645h3.707
	c4.011,0,7.34-0.648,9.977-1.938l-1.731,5.813h-17.932c0.371-0.835,0.674-2.084,0.906-3.73c0.231-1.652,0.352-3.332,0.352-5.048
	v-14.742c0-1.628-0.127-3.295-0.368-4.966c-0.236-1.675-0.532-2.946-0.89-3.813H110.202z"/>
<path fill="#81C342" d="M134.116,134.922c-3.052,0-5.499-0.954-7.356-2.868c-1.857-1.922-2.78-4.49-2.78-7.706
	c0-4.035,1.203-7.237,3.622-9.601c1.253-1.239,2.399-2.105,3.435-2.596c1.033-0.494,2.208-0.75,3.516-0.75
	c2.31,0,4.103,0.848,5.395,2.529c1.296,1.688,1.938,4.031,1.938,7.042c0,1.153-0.007,1.969-0.037,2.449h-13.317
	c0.113,2.486,0.739,4.39,1.878,5.707c1.141,1.306,2.736,1.962,4.8,1.962c2.161,0,4.027-0.636,5.626-1.894l-1.443,5.128
	C137.316,134.728,135.561,134.922,134.116,134.922 M128.617,120.642h8.628c0-2.034-0.279-3.521-0.843-4.453
	c-0.563-0.937-1.462-1.401-2.702-1.401C130.773,114.787,129.078,116.737,128.617,120.642"/>
<path fill="#81C342" d="M152.006,111.413c2.437,0,4.322,0.653,5.651,1.975c1.329,1.317,1.997,3.176,1.997,5.565v8.779
	c0,2.886,0.394,5.109,1.176,6.677h-5.566v-2.287l-2.66,2.535c-0.893,0.183-1.871,0.265-2.944,0.265
	c-1.431,0-2.618-0.513-3.563-1.531c-0.949-1.027-1.425-2.349-1.425-3.971c0-1.293,0.211-2.34,0.62-3.144
	c0.412-0.799,1.146-1.616,2.208-2.441c1.274-0.978,2.651-1.851,4.127-2.626c1.479-0.779,2.691-1.277,3.638-1.496v-1.133
	c0-1.212-0.373-2.146-1.11-2.8c-0.746-0.663-1.796-0.993-3.154-0.993c-2.058,0-3.932,0.538-5.605,1.604l1.377-4.404
	C148.368,111.601,150.113,111.413,152.006,111.413 M152.688,123.587c-1.37,0-2.319,0.285-2.841,0.854
	c-0.525,0.574-0.787,1.668-0.787,3.291c0,1.387,0.196,2.4,0.592,3.024c0.382,0.634,1.026,0.951,1.902,0.951
	c1.169,0,2.079-0.097,2.732-0.308c0.655-0.204,0.977-0.495,0.977-0.867v-6.946H152.688z"/>
<path fill="#81C342" d="M173.854,114.787c-1.774,0-3.134,0.726-4.07,2.176c-0.941,1.448-1.412,3.508-1.412,6.168
	c0,2.654,0.645,4.694,1.935,6.13c1.074,1.186,2.372,1.786,3.898,1.786c0.964,0,1.954-0.224,2.975-0.677
	c1.025-0.456,1.541-0.903,1.541-1.362v-12.159C177.439,115.477,175.822,114.787,173.854,114.787 M184.286,101.616
	c-0.79,1.535-1.176,3.761-1.176,6.656v19.48c0,2.896,0.386,5.114,1.176,6.657h-5.564v-3.317l-2.828,3.479
	c-0.927,0.239-2.007,0.35-3.214,0.35c-2.456,0-4.547-1.024-6.279-3.081c-1.721-2.053-2.583-4.552-2.583-7.492
	c0-3.588,1.225-6.662,3.667-9.231c1.239-1.294,2.486-2.238,3.73-2.825c1.25-0.592,2.64-0.89,4.167-0.89
	c1.152,0,2.263,0.17,3.34,0.502v-3.632c0-0.978-0.112-1.972-0.33-2.987c-0.218-1.016-0.501-1.859-0.846-2.534L184.286,101.616z"/>
<path fill="#81C342" d="M197.437,134.922c-3.056,0-5.502-0.954-7.36-2.868c-1.856-1.922-2.78-4.49-2.78-7.706
	c0-4.035,1.206-7.237,3.625-9.601c1.25-1.239,2.399-2.105,3.432-2.596c1.033-0.494,2.208-0.75,3.517-0.75
	c2.306,0,4.103,0.848,5.397,2.529c1.294,1.688,1.934,4.031,1.934,7.042c0,1.153-0.006,1.969-0.033,2.449H191.85
	c0.111,2.486,0.738,4.39,1.877,5.707c1.141,1.306,2.736,1.962,4.8,1.962c2.161,0,4.031-0.636,5.626-1.894l-1.443,5.128
	C200.633,134.728,198.878,134.922,197.437,134.922 M191.934,120.642h8.632c0-2.034-0.283-3.521-0.843-4.453
	c-0.565-0.937-1.464-1.401-2.702-1.401C194.094,114.787,192.397,116.737,191.934,120.642"/>
<path fill="#81C342" d="M207.987,134.41c0.79-1.566,1.176-3.793,1.176-6.678v-9.152c0-2.887-0.386-5.114-1.176-6.676h5.567v3.548
	l2.785-3.548c1.011-0.332,2.144-0.502,3.379-0.502c0.989,0,1.701,0.127,2.143,0.376l-1.302,5.155
	c-0.766-0.59-1.835-0.883-3.212-0.883c-2.528,0-3.792,0.945-3.792,2.863v8.818c0,2.885,0.392,5.111,1.172,6.678H207.987z"/>
<path fill="#81C342" d="M231.965,129.008c0-1.056-0.71-2.043-2.123-2.948l-3.795-2.49c-1.912-1.27-2.863-2.94-2.863-5.032
	c0-1.947,0.655-3.59,1.977-4.903c1.484-1.482,3.244-2.231,5.277-2.231c1.425,0,2.883,0.185,4.368,0.547l-1.072,4.484
	c-1.11-0.876-2.438-1.317-3.981-1.317c-0.835,0-1.496,0.17-1.975,0.515c-0.478,0.344-0.724,0.803-0.724,1.38
	c0,1.035,0.712,2.02,2.124,2.968l3.462,2.272c1.144,0.756,1.979,1.575,2.504,2.466c0.536,0.886,0.793,1.898,0.793,3.037
	c0,1.836-0.674,3.469-2.037,4.882c-1.458,1.526-3.23,2.287-5.32,2.287c-1.646,0-3.419-0.195-5.318-0.597l0.766-4.552
	c1.252,0.963,2.972,1.441,5.15,1.441c0.814,0,1.475-0.209,1.997-0.627C231.707,130.169,231.965,129.641,231.965,129.008"/>
<path fill="#81C342" d="M238.473,134.41c0.787-1.566,1.173-3.793,1.173-6.678v-19.459c0-0.979-0.103-1.973-0.328-2.988
	c-0.218-1.016-0.5-1.858-0.845-2.536l6.739-1.133c-0.783,1.591-1.175,3.813-1.175,6.657v7.179l2.784-3.548
	c1.183-0.332,2.311-0.502,3.379-0.502c2.076,0,3.681,0.657,4.809,1.965c1.134,1.303,1.707,3.15,1.707,5.547v8.818
	c0,2.885,0.392,5.111,1.171,6.678h-6.739c0.783-1.613,1.175-3.834,1.175-6.678v-8.818c0-1.103-0.314-1.98-0.958-2.642
	c-0.64-0.661-1.52-0.992-2.63-0.992c-1.111,0-2.177,0.283-3.179,0.835c-1.015,0.557-1.52,1.13-1.52,1.704v9.913
	c0,2.844,0.392,5.064,1.175,6.678H238.473z"/>
<path fill="#81C342" d="M261.149,134.41c0.787-1.568,1.176-3.793,1.176-6.678v-9.176c0-2.868-0.389-5.09-1.176-6.651h6.739
	c-0.779,1.562-1.176,3.783-1.176,6.651v9.176c0,2.885,0.396,5.109,1.176,6.678H261.149z M261.36,105.264
	c0-0.852,0.31-1.593,0.933-2.218c0.628-0.619,1.374-0.937,2.236-0.937c0.854,0,1.591,0.317,2.219,0.937
	c0.624,0.625,0.936,1.366,0.936,2.218c0,0.865-0.313,1.607-0.936,2.234c-0.627,0.629-1.364,0.945-2.219,0.945
	c-0.863,0-1.608-0.316-2.236-0.945C261.669,106.871,261.36,106.129,261.36,105.264"/>
<path fill="#81C342" d="M271.328,141.5c0.788-1.568,1.179-3.784,1.179-6.655v-16.289c0-2.868-0.391-5.09-1.179-6.651h5.562v3.332
	l2.832-3.501c0.943-0.218,2.017-0.333,3.212-0.333c2.456,0,4.553,1.026,6.277,3.074c1.727,2.05,2.579,4.533,2.579,7.465
	c0,1.85-0.292,3.526-0.882,5.023c-0.59,1.499-1.513,2.915-2.78,4.251c-1.25,1.289-2.498,2.231-3.749,2.82
	c-1.253,0.591-2.63,0.886-4.143,0.886c-1.114,0-2.232-0.168-3.346-0.512v0.435c0,2.871,0.397,5.087,1.179,6.655H271.328z
	 M281.762,131.546c1.761,0,3.108-0.731,4.056-2.188c0.952-1.456,1.423-3.519,1.423-6.184c0-2.653-0.646-4.692-1.936-6.12
	c-1.076-1.182-2.371-1.774-3.897-1.774c-0.961,0-1.956,0.228-2.975,0.683c-1.03,0.451-1.543,0.9-1.543,1.335v12.169
	C278.174,130.853,279.79,131.546,281.762,131.546"/>
<path fill="#81C342" d="M309.157,127.789c0.923,1.005,2.123,1.8,3.625,2.387c1.497,0.582,3.056,0.87,4.656,0.87
	c1.225,0,2.286-0.396,3.181-1.179c0.893-0.791,1.333-1.698,1.333-2.708c0-1.803-0.869-3.378-2.613-4.725l-5.875-4.539
	c-3.301-2.552-4.947-5.478-4.947-8.779c0-2.151,0.838-3.945,2.504-5.365c1.669-1.42,3.772-2.135,6.32-2.135
	c2.867,0,5.356,0.34,7.436,1.007v5.446c-1.677-1.717-3.925-2.576-6.76-2.576c-1.358,0-2.437,0.331-3.231,0.999
	c-0.803,0.662-1.195,1.543-1.195,2.624c0,1.689,0.936,3.251,2.821,4.678l6.866,5.257c1.124,0.852,2.033,1.943,2.715,3.271
	c0.688,1.319,1.036,2.653,1.036,3.989c0,2.647-0.825,4.751-2.458,6.296c-1.634,1.545-3.833,2.314-6.594,2.314
	c-2.953,0-5.891-0.437-8.82-1.312V127.789z"/>
<path fill="#81C342" d="M349.246,111.904c-0.79,1.562-1.175,3.788-1.175,6.676v9.173c0,2.896,0.386,5.114,1.175,6.657h-5.567v-3.522
	l-2.785,3.522c-1.124,0.344-2.251,0.512-3.379,0.512c-2.072,0-3.68-0.65-4.802-1.952c-1.128-1.311-1.689-3.161-1.689-5.566v-8.823
	c0-2.888-0.392-5.114-1.176-6.676h6.743c-0.79,1.562-1.176,3.788-1.176,6.676v8.823c0,1.109,0.314,1.998,0.954,2.659
	c0.64,0.66,1.513,0.984,2.634,0.984c1.11,0,2.167-0.275,3.169-0.829c1.001-0.556,1.506-1.126,1.506-1.705v-9.933
	c0-2.888-0.393-5.114-1.176-6.676H349.246z"/>
<path fill="#81C342" d="M352.685,134.41c0.787-1.566,1.176-3.793,1.176-6.678v-9.152c0-2.887-0.389-5.114-1.176-6.676h5.567v3.548
	l2.782-3.548c1.157-0.332,2.282-0.502,3.379-0.502c1.571,0,2.856,0.39,3.876,1.161c1.02,0.77,1.712,1.89,2.083,3.357l2.103-3.686
	c0.563-0.239,1.265-0.432,2.123-0.592c0.852-0.156,1.629-0.241,2.331-0.241c2.047,0,3.608,0.649,4.692,1.931
	c1.089,1.285,1.63,3.145,1.63,5.581v8.818c0,2.885,0.396,5.111,1.18,6.678h-6.743c0.783-1.613,1.176-3.834,1.176-6.678v-8.818
	c0-1.143-0.301-2.036-0.896-2.68c-0.597-0.63-1.438-0.954-2.522-0.954c-1.121,0-2.173,0.283-3.188,0.835
	c-1.012,0.557-1.514,1.13-1.514,1.704v9.913c0,2.844,0.388,5.064,1.173,6.678h-6.737c0.781-1.566,1.175-3.793,1.175-6.678v-8.818
	c0-1.143-0.302-2.036-0.899-2.68c-0.603-0.63-1.437-0.954-2.527-0.954c-1.111,0-2.167,0.283-3.173,0.835
	c-0.998,0.557-1.503,1.13-1.503,1.704v9.913c0,2.885,0.393,5.111,1.173,6.678H352.685z"/>
<path fill="#81C342" d="M387.849,134.41c0.79-1.566,1.175-3.793,1.175-6.678v-9.152c0-2.887-0.385-5.114-1.175-6.676h5.566v3.548
	l2.787-3.548c1.153-0.332,2.277-0.502,3.375-0.502c1.568,0,2.858,0.39,3.874,1.161c1.023,0.77,1.712,1.89,2.088,3.357l2.098-3.686
	c0.565-0.239,1.27-0.432,2.13-0.592c0.848-0.156,1.621-0.241,2.326-0.241c2.049,0,3.611,0.649,4.693,1.931
	c1.091,1.285,1.631,3.145,1.631,5.581v8.818c0,2.885,0.396,5.111,1.176,6.678h-6.74c0.78-1.613,1.176-3.834,1.176-6.678v-8.818
	c0-1.143-0.302-2.036-0.893-2.68c-0.598-0.63-1.445-0.954-2.526-0.954c-1.117,0-2.176,0.283-3.186,0.835
	c-1.014,0.557-1.514,1.13-1.514,1.704v9.913c0,2.844,0.386,5.064,1.176,6.678h-6.743c0.783-1.566,1.176-3.793,1.176-6.678v-8.818
	c0-1.143-0.302-2.036-0.899-2.68c-0.598-0.63-1.436-0.954-2.527-0.954c-1.11,0-2.166,0.283-3.173,0.835
	c-0.997,0.557-1.504,1.13-1.504,1.704v9.913c0,2.885,0.393,5.111,1.173,6.678H387.849z"/>
<path fill="#81C342" d="M423.014,134.41c0.787-1.568,1.173-3.793,1.173-6.678v-9.176c0-2.868-0.386-5.09-1.173-6.651h6.736
	c-0.779,1.562-1.172,3.783-1.172,6.651v9.176c0,2.885,0.393,5.109,1.172,6.678H423.014z M423.222,105.264
	c0-0.852,0.312-1.593,0.939-2.218c0.626-0.619,1.37-0.937,2.237-0.937c0.848,0,1.591,0.317,2.215,0.937
	c0.624,0.625,0.936,1.366,0.936,2.218c0,0.865-0.312,1.607-0.936,2.234c-0.624,0.629-1.367,0.945-2.215,0.945
	c-0.867,0-1.611-0.316-2.237-0.945C423.534,106.871,423.222,106.129,423.222,105.264"/>
<path fill="#81C342" d="M432.017,114.684l7.009-8.635v5.856h5.752v2.778h-5.752v13.83c0,0.81,0.214,1.443,0.653,1.898
	c0.429,0.451,1.033,0.679,1.799,0.679c1.582,0,2.829-0.325,3.751-0.964l-1.173,4.283c-1.458,0.344-2.748,0.512-3.858,0.512
	c-1.757,0-3.122-0.512-4.102-1.531c-0.968-1.027-1.462-2.463-1.462-4.32v-14.387H432.017z"/>
<path fill="#81C342" d="M471.451,112.705c1.156-0.863,1.984-1.631,2.481-2.299c0.503-0.662,0.756-1.325,0.756-1.97
	c0-0.813-0.289-1.502-0.857-2.076c-0.572-0.578-1.271-0.867-2.092-0.867c-0.867,0-1.579,0.276-2.127,0.825
	c-0.546,0.548-0.822,1.251-0.822,2.118C468.791,109.688,469.677,111.107,471.451,112.705 M480.128,126.945
	c-2.79-2.829-5.917-5.674-9.392-8.525c-2.121,1.469-3.576,2.714-4.362,3.733c-0.789,1.027-1.192,2.104-1.192,3.23
	c0,1.731,0.626,3.111,1.871,4.129c1.237,1.026,2.914,1.533,5.018,1.533c1.37,0,2.757-0.353,4.164-1.055
	C477.634,129.282,478.936,128.268,480.128,126.945 M480.648,114.478v-5.361h13.663v5.361c-0.649-0.449-1.429-0.814-2.354-1.084
	c-0.919-0.267-1.828-0.399-2.722-0.399v2.124c0,1.879-0.237,3.806-0.73,5.768c-0.484,1.966-1.153,3.715-2.004,5.258
	c2.498,2.434,4.651,5.186,6.45,8.267h-8.427c0-1.223-0.452-2.497-1.342-3.833c-1.357,1.385-3.014,2.463-4.946,3.213
	c-1.938,0.76-3.992,1.132-6.164,1.132c-3.933,0-6.905-0.808-8.928-2.417c-2.02-1.618-3.024-3.991-3.024-7.121
	c0-1.718,0.569-3.363,1.715-4.94c1.146-1.577,3-3.221,5.556-4.961c-1.279-1.228-2.208-2.412-2.796-3.529
	c-0.582-1.119-0.877-2.295-0.877-3.517c0-2.183,0.705-3.864,2.107-5.047c1.397-1.179,3.378-1.772,5.915-1.772
	c2.54,0,4.514,0.594,5.914,1.772c1.403,1.183,2.108,2.864,2.108,5.047c0,1.236-0.39,2.425-1.169,3.561
	c-0.773,1.13-2.02,2.319-3.745,3.572c2.722,2.218,5.411,4.559,8.064,7.028c1.02-2.337,1.523-4.828,1.523-7.479v-2.124
	C483.315,112.994,482.048,113.487,480.648,114.478"/>
<path fill="#81C342" d="M531.04,124.614h-10.714l-0.513,1.264c-1.153,2.994-1.731,5.836-1.731,8.532h-7.934
	c1.4-1.416,2.896-3.935,4.489-7.544l11.052-25.25l11.068,25.25c1.566,3.599,3.06,6.115,4.469,7.544h-7.931
	c0-2.725-0.578-5.566-1.731-8.532L531.04,124.614z M525.688,111.198l-3.793,9.548h7.586L525.688,111.198z"/>
<path fill="#81C342" d="M551.552,128.678l3.127-13.476c0.302-1.335,0.416-2.435,0.332-3.298h4.602
	c-0.084,0.823,0.029,1.919,0.344,3.298l3.157,13.476l2.494-12.862c0.328-1.619,0.286-2.928-0.12-3.911h6.369
	c-0.789,0.998-1.37,2.278-1.734,3.834l-3.192,14.527c-0.319,1.295-0.585,2.674-0.809,4.144h-5.355
	c-0.042-0.562-0.325-1.954-0.844-4.186l-2.582-11.109l-2.575,11.109c-0.52,2.231-0.802,3.624-0.844,4.186h-5.359
	c-0.182-1.222-0.442-2.604-0.803-4.144l-3.215-14.527c-0.357-1.556-0.936-2.836-1.731-3.834h6.386
	c-0.396,0.97-0.442,2.278-0.14,3.911L551.552,128.678z"/>
<path fill="#81C342" d="M581.233,111.413c2.436,0,4.319,0.653,5.647,1.975c1.332,1.317,2.001,3.176,2.001,5.565v8.779
	c0,2.886,0.393,5.109,1.172,6.677h-5.563v-2.287l-2.66,2.535c-0.894,0.183-1.871,0.265-2.949,0.265
	c-1.429,0-2.618-0.513-3.556-1.531c-0.955-1.027-1.429-2.349-1.429-3.971c0-1.293,0.211-2.34,0.617-3.144
	c0.413-0.799,1.146-1.616,2.208-2.441c1.273-0.978,2.654-1.851,4.128-2.626c1.478-0.779,2.689-1.277,3.641-1.496v-1.133
	c0-1.212-0.374-2.146-1.111-2.8c-0.747-0.663-1.796-0.993-3.153-0.993c-2.063,0-3.933,0.538-5.605,1.604l1.377-4.404
	C577.595,111.601,579.339,111.413,581.233,111.413 M581.915,123.587c-1.374,0-2.323,0.285-2.842,0.854
	c-0.529,0.574-0.79,1.668-0.79,3.291c0,1.387,0.198,2.4,0.591,3.024c0.39,0.634,1.026,0.951,1.903,0.951
	c1.172,0,2.078-0.097,2.731-0.308c0.656-0.204,0.981-0.495,0.981-0.867v-6.946H581.915z"/>
<path fill="#81C342" d="M593.431,134.41c0.786-1.566,1.175-3.793,1.175-6.678v-9.152c0-2.887-0.39-5.114-1.175-6.676h5.563v3.548
	l2.79-3.548c1.014-0.332,2.144-0.502,3.377-0.502c0.987,0,1.699,0.127,2.144,0.376l-1.302,5.155
	c-0.767-0.59-1.835-0.883-3.212-0.883c-2.527,0-3.797,0.945-3.797,2.863v8.818c0,2.885,0.396,5.111,1.176,6.678H593.431z"/>
<path fill="#81C342" d="M618.705,114.787c-1.777,0-3.134,0.726-4.069,2.176c-0.938,1.448-1.413,3.508-1.413,6.168
	c0,2.654,0.646,4.694,1.936,6.13c1.075,1.186,2.368,1.786,3.894,1.786c0.965,0,1.958-0.224,2.978-0.677
	c1.026-0.456,1.54-0.903,1.54-1.362v-12.159C622.291,115.477,620.673,114.787,618.705,114.787 M629.136,101.616
	c-0.789,1.535-1.176,3.761-1.176,6.656v19.48c0,2.896,0.387,5.114,1.176,6.657h-5.566v-3.317l-2.829,3.479
	c-0.926,0.239-2.004,0.35-3.215,0.35c-2.455,0-4.543-1.024-6.275-3.081c-1.724-2.053-2.582-4.552-2.582-7.492
	c0-3.588,1.224-6.662,3.67-9.231c1.234-1.294,2.478-2.238,3.725-2.825c1.253-0.592,2.64-0.89,4.164-0.89
	c1.156,0,2.267,0.17,3.342,0.502v-3.632c0-0.978-0.11-1.972-0.329-2.987c-0.217-1.016-0.5-1.859-0.844-2.534L629.136,101.616z"/>
<path fill="#81C342" d="M640.887,129.008c0-1.056-0.711-2.043-2.127-2.948l-3.791-2.49c-1.913-1.27-2.864-2.94-2.864-5.032
	c0-1.947,0.653-3.59,1.978-4.903c1.481-1.482,3.245-2.231,5.277-2.231c1.426,0,2.884,0.185,4.368,0.547l-1.072,4.484
	c-1.11-0.876-2.438-1.317-3.979-1.317c-0.838,0-1.5,0.17-1.978,0.515c-0.481,0.344-0.724,0.803-0.724,1.38
	c0,1.035,0.711,2.02,2.121,2.968l3.461,2.272c1.15,0.756,1.978,1.575,2.507,2.466c0.536,0.886,0.792,1.898,0.792,3.037
	c0,1.836-0.672,3.469-2.036,4.882c-1.458,1.526-3.232,2.287-5.32,2.287c-1.646,0-3.42-0.195-5.319-0.597l0.766-4.552
	c1.254,0.963,2.969,1.441,5.148,1.441c0.818,0,1.477-0.209,2-0.627C640.626,130.169,640.887,129.641,640.887,129.008"/>
<path fill="#81C342" d="M681.613,134.41h-20.197l13.702-17.563c1.611-2.045,2.413-3.987,2.413-5.809
	c0-1.653-0.471-2.989-1.409-4.012c-0.945-1.026-2.192-1.533-3.745-1.533c-1.495,0-2.715,0.521-3.657,1.578
	c-0.938,1.048-1.41,2.369-1.41,3.967c0,0.725,0.121,1.498,0.367,2.307l-5.128-1.44c0-3.096,0.9-5.58,2.709-7.466
	c1.809-1.879,4.177-2.822,7.119-2.822c2.89,0,5.254,0.879,7.103,2.64c1.848,1.759,2.773,4.018,2.773,6.782
	c0,1.211-0.318,2.545-0.952,4.016c-0.63,1.475-1.51,2.929-2.637,4.371l-8.652,11.108h6.261c2.611,0,4.94-0.452,6.986-1.358
	L681.613,134.41z"/>
<path fill="#81C342" d="M698.884,105.494c-2.173,0-3.813,1.068-4.93,3.225c-1.114,2.151-1.666,5.324-1.666,9.531
	c0,4.209,0.552,7.387,1.666,9.556c1.118,2.166,2.757,3.241,4.93,3.241c2.17,0,3.813-1.075,4.927-3.241
	c1.111-2.169,1.666-5.347,1.666-9.556c0-4.207-0.555-7.38-1.666-9.531C702.697,106.563,701.054,105.494,698.884,105.494
	 M687.566,118.25c0-5.594,0.936-9.766,2.806-12.51c1.867-2.752,4.709-4.124,8.512-4.124c3.807,0,6.642,1.372,8.516,4.124
	c1.864,2.744,2.8,6.916,2.8,12.51c0,5.606-0.936,9.785-2.8,12.544c-1.874,2.751-4.709,4.128-8.516,4.128
	c-3.803,0-6.645-1.377-8.512-4.128C688.501,128.035,687.566,123.856,687.566,118.25"/>
<path fill="#81C342" d="M733.946,134.41h-20.197l13.702-17.563c1.611-2.045,2.413-3.987,2.413-5.809
	c0-1.653-0.471-2.989-1.409-4.012c-0.945-1.026-2.192-1.533-3.745-1.533c-1.495,0-2.715,0.521-3.657,1.578
	c-0.938,1.048-1.41,2.369-1.41,3.967c0,0.725,0.121,1.498,0.367,2.307l-5.128-1.44c0-3.096,0.9-5.58,2.709-7.466
	c1.809-1.879,4.177-2.822,7.119-2.822c2.89,0,5.254,0.879,7.103,2.64c1.848,1.759,2.773,4.018,2.773,6.782
	c0,1.211-0.318,2.545-0.952,4.016c-0.63,1.475-1.51,2.929-2.637,4.371l-8.652,11.108h6.261c2.611,0,4.94-0.452,6.986-1.358
	L733.946,134.41z"/>
<path fill="#81C342" d="M751.217,105.494c-2.173,0-3.813,1.068-4.93,3.225c-1.114,2.151-1.666,5.324-1.666,9.531
	c0,4.209,0.552,7.387,1.666,9.556c1.118,2.166,2.757,3.241,4.93,3.241c2.17,0,3.813-1.075,4.927-3.241
	c1.111-2.169,1.666-5.347,1.666-9.556c0-4.207-0.555-7.38-1.666-9.531C755.03,106.563,753.387,105.494,751.217,105.494
	 M739.899,118.25c0-5.594,0.936-9.766,2.806-12.51c1.867-2.752,4.709-4.124,8.512-4.124c3.807,0,6.642,1.372,8.516,4.124
	c1.864,2.744,2.8,6.916,2.8,12.51c0,5.606-0.936,9.785-2.8,12.544c-1.874,2.751-4.709,4.128-8.516,4.128
	c-3.803,0-6.645-1.377-8.512-4.128C740.835,128.035,739.899,123.856,739.899,118.25"/>
</svg>
